<?xml version="1.0" encoding="UTF-8"?>
<svg id="Layer_2" data-name="Layer 2" xmlns="http://www.w3.org/2000/svg" viewBox="0 0 39.81 38.83">
  <defs>
    <style>
      .cls-1 {
        fill: #08d6ff;
        fill-rule: evenodd;
      }
    </style>
  </defs>
  <g id="Layer_1-2" data-name="Layer 1">
    <path class="cls-1" d="M19.9,0C8.91,0,0,8.91,0,19.9c0,8.81,5.7,16.25,13.61,18.88,1,.17,1.37-.42,1.37-.95,0-.47-.02-2.04-.02-3.71-5,.92-6.29-1.22-6.69-2.34-.22-.57-1.19-2.34-2.04-2.81-.7-.37-1.69-1.29-.02-1.32,1.57-.02,2.69,1.44,3.06,2.04,1.79,3.01,4.65,2.16,5.8,1.64.17-1.29.7-2.16,1.27-2.66-4.43-.5-9.06-2.21-9.06-9.83,0-2.16.77-3.96,2.04-5.35-.2-.5-.9-2.54.2-5.27,0,0,1.67-.52,5.47,2.04,1.59-.45,3.28-.67,4.98-.67s3.38.22,4.98.67c3.81-2.59,5.47-2.04,5.47-2.04,1.09,2.74.4,4.78.2,5.27,1.27,1.39,2.04,3.16,2.04,5.35,0,7.64-4.65,9.33-9.08,9.83.72.62,1.34,1.82,1.34,3.68,0,2.66-.02,4.8-.02,5.47,0,.52.37,1.14,1.37.95,7.86-2.64,13.56-10.1,13.56-18.88C39.81,8.91,30.9,0,19.9,0Z"/>
  </g>
</svg>