<?xml version="1.0" encoding="UTF-8"?>
<svg id="Layer_2" data-name="Layer 2" xmlns="http://www.w3.org/2000/svg" viewBox="0 0 38.8 38.84">
  <defs>
    <style>
      .cls-1 {
        fill: #08d6ff;
      }
    </style>
  </defs>
  <g id="Layer_1-2" data-name="Layer 1">
    <path class="cls-1" d="M34.09,38.81H5.42c-2.85.26-5.31-1.8-5.42-4.68V4.6C.16,2.16,1.99.31,4.41,0h29.87c2.51.26,4.41,2.18,4.52,4.69l-.04,29.64c0,2.42-2.25,4.48-4.67,4.48ZM12.8,9.71c0-1.71-1.38-3.09-3.09-3.09s-3.09,1.38-3.09,3.09,1.38,3.09,3.09,3.09,3.09-1.38,3.09-3.09ZM21.04,22.07c.27-1.79,1.37-2.72,3.2-2.7,1.11.01,2.03.63,2.33,1.73l.27,1.67-.04,5.53-.05,3.9h5.32s.03-2.49.03-2.49l.02-8.33c0-2.34-.77-5.03-2.97-6.05-1.24-.57-2.65-.76-4.01-.61-1.88.2-3.43,1.16-4.41,2.78l.02-2.36h-5.09s-.04,3.96-.04,3.96l-.05,10c-.06.3-.08.56-.08.85v2.25s5.37,0,5.37,0l.02-5.27.16-4.86ZM12.2,32.2l.05-3.89c.08-1.23.06-2.42.04-3.68l.04-9.49h-5.32s-.02,4.73-.02,4.73c-.08.38-.09.73-.05,1.14l-.04,11.19h5.31Z"/>
  </g>
</svg>